<?xml version="1.0" encoding="utf-8"?>
<!-- Generator: Adobe Illustrator 22.0.1, SVG Export Plug-In . SVG Version: 6.00 Build 0)  -->
<svg version="1.1" id="Layer_1" xmlns="http://www.w3.org/2000/svg" xmlns:xlink="http://www.w3.org/1999/xlink" x="0px" y="0px"
	 viewBox="0 0 461.1 328.5" style="enable-background: new 0 0 461.1 328.5" xml:space="preserve">
<style type="text/css">
	.st0{fill:#9E054B;stroke:#9E054B;stroke-miterlimit:10;}
	.st1{fill:#9E054B;}
	.st2{fill:#9E054B;stroke:#9E054B;stroke-width:4;stroke-miterlimit:10;}
	.st3{enable-background:new    ;}
	.st4{clip-path:url(#SVGID_2_);}
</style>
<path class="st0" d="M 138.2 83.5 c -26.4 0 -47.8 22.6 -47.8 50.6 c 0 27.9 21.4 50.6 47.8 50.6 s 47.8 81.9 47.8 54 V 134.1 C 186.1 106.2 164.6 83.5 138.2 83.5 z M 139.8 159.4 c -13.2 0 -23.9 -11.3 -23.9 -25.3 s 10.7 -25.3 23.9 -25.3 s 23.9 11.3 23.9 25.3 C 163.7 148.1 153 159.4 139.8 159.4 z">

	<animateTransform id="updown" attributeType="XML" attributeName="transform" dur="1s" values="0,100;15,0" repeatCount="indefinite" />
	
</path>
<g>
	<path class="st1" d="M 333.2 112.8 c 14.1 0 25.6 11.5 25.6 25.6 S 347.3 164 333.2 164 s -25.6 -11.5 -25.6 -25.6 S 319 112.8 333.2 112.8 M 333.2 89.8 c -26.8 0 -48.6 21.8 -48.6 48.6 s 21.8 48.6 48.6 48.6 s 48.6 -21.8 48.6 -48.6 S 360 89.8 333.2 89.8 L 333.2 89.8 z"/>
</g>
<g>
	<path class="st2" d="M 223.5 133.1 c 1.9 -0.3 3.2 -2 4.5 -3.2 c 1.7 -1.6 3.5 -3 5.5 -4.2 c -0.2 1.2 -1 2.2 -1.7 3.1 c -6.2 8.5 -9.9 18.7 -10.9 29.2 c -0.2 2.4 -0.4 4.9 -0.5 7.4 c -0.3 6.3 -0.5 12.8 -2 19 c -0.4 1.6 -0.9 3.3 -1.9 4.6 s -2.6 2.4 -4.2 2.3 c -2.8 -0.2 -4.5 -3.1 -5.4 -5.8 c -2.2 -6.4 -2.6 -13.3 -2.9 -20.1 c -1.1 -20.7 -2.3 -41.3 -3.4 -62 c -0.1 -2.2 -0.2 -4.7 1.2 -6.4 c 1.1 -1.4 2.9 -2.1 4.7 -2.4 c 2.5 -0.4 5.5 0.1 7.1 2.1 c 0.9 1.1 1.2 2.5 1.6 3.9 c 2.8 10.8 5.6 21.6 8.4 32.4 C 223.5 133 223.5 133.1 223.5 133.1"/>
	<g>
		<path class="st1" d="M 220.4 147.6 c -2.9 0.9 -6.2 0.6 -8.7 -1.1 c -3.8 -2.5 -5.8 -5.5 -5.1 -10.2 c 2.3 -16.9 11 -28.7 26.3 -35.9 c 9.3 -4.4 17.9 -4.8 27.5 -1.7 c 7.7 2.6 13.8 8 17.2 15.3 c 2.3 5 1.5 10.8 -3.3 14.2 c -1.7 1.2 -3.9 1.5 -5.9 1.5 c -2.1 -0.1 -3.1 -0.9 -5.2 -1.8 c -2.1 -0.9 -4.4 -2.7 -6.9 -3.3 c -11.7 -3.2 -21.2 1.1 -27.1 11.5 c -1.1 2 -1.8 3.7 -2.8 5.4 C 224.9 144 223.4 146.7 220.4 147.6 z"/>
	</g>
</g>
<g>
	<g>
		<g class="st3">
			<defs>
				<polygon id="SVGID_1_" class="st3" points="129.8,255.3 141.6,225 232.8,227.7 221,258"/>
			</defs>
			<clipPath id="SVGID_2_">
				<use transform="matrix(1,0,0,1,0,0)" xlink:href="#SVGID_1_"  style="overflow: visible"/>
			</clipPath>
			<g class="st4">
				<g>
					<g>
						<g>
							<path class="st1" d="M 177.3 251.9 c -19.4 -0.6 -33.9 -5.8 -31.7 -11.5 c 1.1 -2.9 5.9 -4.7 8.7 -5.5 c 8 -2.3 18 -3.7 27.5 -3.8 c 1.2 0 2.4 0 3.7 0 c 8 0.2 18.1 1.5 24.9 3.9 c 5.6 2 7.9 4.5 6.8 7.4 C 214.9 247.9 193 252.3 177.3 251.9 M 187.3 226.3 c -1.6 0 -3.1 -0.1 -4.5 0 c -11.3 0.1 -23.2 1.8 -32.8 4.5 c -7.6 2.2 -12.8 5.5 -14.2 9.2 c -3.3 8.6 14.1 15.9 39.6 16.6 c 21.1 0.6 48.2 -5.4 51.5 -14 c 1.8 -4.6 -1.6 -8.6 -9.9 -11.6 C 208.7 228.1 196.9 226.6 187.3 226.3"/>
						</g>
					</g>
				</g>
			</g>
		</g>
	</g>
</g>
</svg>
